<?xml version="1.0" encoding="utf-8"?>
<!-- Generator: Adobe Illustrator 21.1.0, SVG Export Plug-In . SVG Version: 6.00 Build 0)  -->
<svg version="1.1" id="Layer_1" xmlns="http://www.w3.org/2000/svg" xmlns:xlink="http://www.w3.org/1999/xlink" x="0px" y="0px"
	 viewBox="0 0 542 100" style="enable-background:new 0 0 542 100;" xml:space="preserve">
<style type="text/css">
	.st0{fill:none;stroke:#000000;stroke-miterlimit:10;}
</style>
<g>
	<line class="st0" x1="469.3" y1="27.3" x2="66.5" y2="27.3"/>
	<path d="M467.7,19.9c0,15,0,15,0,15l25.2-7.5C467.7,19.9,467.7,19.9,467.7,19.9z"/>
	<line class="st0" x1="201.9" y1="34.9" x2="201.9" y2="19.9"/>
	<line class="st0" x1="333.9" y1="34.9" x2="333.9" y2="19.9"/>
	<g>
		<path d="M68.9,43.9L68.9,43.9V57c0,0.6,0.1,0.9,0.4,1.1c0.3,0.2,0.8,0.2,1.7,0.3v0.3h-6.1v-0.3c0.9,0,1.4-0.2,1.7-0.4
			c0.3-0.2,0.4-0.6,0.4-1.3v-9.9c0-0.3,0-0.6-0.1-0.8s-0.3-0.3-0.6-0.3c-0.2,0-0.4,0.1-0.7,0.2c-0.3,0.1-0.6,0.2-0.8,0.3v-0.3l3.9-2
			L68.9,43.9L68.9,43.9z"/>
	</g>
	<g>
		<path d="M197,58.4c2.6-2.7,4.4-4.7,5.3-6c0.9-1.3,1.4-2.5,1.4-3.7c0-1.1-0.3-1.9-0.9-2.4c-0.6-0.6-1.3-0.8-2.1-0.8
			c-1,0-1.8,0.4-2.4,1.1c-0.3,0.4-0.7,1-1,1.8l-0.5-0.1c0.4-1.6,1-2.8,1.8-3.4c0.9-0.6,1.8-1,2.8-1c1.2,0,2.2,0.4,2.9,1.1
			c0.7,0.8,1.1,1.7,1.1,2.8c0,1.2-0.4,2.3-1.2,3.4c-0.8,1.1-2.6,3-5.3,5.8h4.9c0.7,0,1.2-0.1,1.5-0.2s0.6-0.6,0.9-1.2l0.3,0.1
			l-1.2,3h-8.6v-0.3H197z"/>
	</g>
	<g>
		<path d="M331.6,57.3c0.6,0.4,1.2,0.6,1.6,0.6c1,0,1.7-0.3,2.2-1s0.7-1.4,0.7-2.2s-0.2-1.4-0.6-2c-0.7-1-1.8-1.5-3.4-1.5
			c-0.1,0-0.2,0-0.3,0s-0.2,0-0.3,0v-0.3c1.1-0.4,2-0.9,2.7-1.4c0.7-0.5,1-1.2,1-2.1c0-0.8-0.3-1.4-0.8-1.8s-1.1-0.6-1.8-0.6
			c-0.8,0-1.5,0.3-2.1,0.9c-0.3,0.3-0.7,0.8-1.1,1.5l-0.3-0.1c0.3-1.1,0.8-2,1.6-2.6c0.8-0.7,1.7-1,2.7-1c1.1,0,1.9,0.3,2.5,0.9
			s0.9,1.3,0.9,2.1c0,0.7-0.2,1.3-0.7,1.9c-0.3,0.3-0.7,0.7-1.3,1.1c0.7,0.3,1.2,0.6,1.7,1c0.8,0.8,1.2,1.7,1.2,2.9
			c0,1.4-0.5,2.6-1.6,3.6s-2.6,1.6-4.6,1.6c-0.9,0-1.5-0.1-1.9-0.4s-0.5-0.5-0.5-0.8c0-0.2,0.1-0.4,0.2-0.5c0.1-0.1,0.3-0.3,0.6-0.3
			C330.4,56.7,330.9,56.9,331.6,57.3z"/>
	</g>
	<g>
		<path d="M468.6,43.8h1v9.7h2.2v1.4h-2.2v3.7h-1.7v-3.7h-6.2v-1.4L468.6,43.8z M467.9,46.1l-5.3,7.5h5.3V46.1z"/>
	</g>
	<g>
		<path d="M187.1,74.1h-0.8c-1.1,0-1.9-0.2-2.5-0.5c-0.6-0.3-0.8-0.8-0.8-1.5v-5.3l-1.4-0.9v-0.5l1.8-2.3l1.1,0.7
			c0.3,0.2,0.6,0.3,0.8,0.3h0.4c-0.4,0.8-0.8,1.2-1,1.2c-0.3,0-0.5-0.1-0.8-0.3l-0.6-0.4l-0.8,1l1.9,1.2v1.8h4.7v-1.8l-1.4-0.9v-0.5
			l1.8-2.3l1.1,0.7c0.3,0.2,0.6,0.3,0.8,0.3h0.4c-0.4,0.8-0.8,1.2-1,1.2c-0.3,0-0.5-0.1-0.8-0.3l-0.6-0.4l-0.8,1l1.9,1.2v5.3
			c0,0.7-0.3,1.1-0.8,1.5C189.1,74,188.2,74.1,187.1,74.1z M184.4,69.4v2.7c0,0.4,0.2,0.7,0.5,0.9c0.3,0.2,0.8,0.3,1.5,0.3h0.8
			c0.7,0,1.1-0.1,1.5-0.3c0.3-0.2,0.5-0.5,0.5-0.9v-2.7C189.2,69.4,184.4,69.4,184.4,69.4z"/>
		<path d="M202.6,74.1h-1.4l-2.3-1.5l-2.3,1.5h-1.4v-8.2l-0.8-0.9v-0.4l2.7-1.4h0.3l1.7,1.1l1.2-1.1h0.3l1.6,1
			c0.2,0.1,0.5,0.2,0.7,0.2h0.4c-0.3,0.8-0.6,1.2-1,1.2s-0.7-0.1-1.1-0.3l-1.2-0.8l-1.2,1.1h-0.2l-1.9-1.2l-1,0.5l0.9,1.1v7.3
			l2.3-1.5l2.3,1.5V70c-0.5,0-0.8-0.1-1-0.2c-0.2-0.2-0.3-0.4-0.3-0.7c0-0.2,0.1-0.4,0.2-0.7c0.1-0.3,0.3-0.5,0.6-0.8l0.6-0.7h1.4
			v7.2H202.6z M201.2,68.1c-0.2,0.2-0.3,0.4-0.4,0.6c-0.1,0.2-0.1,0.3-0.1,0.4s0,0.1,0.1,0.1s0.2,0,0.4,0V68.1z"/>
		<path d="M201.4,78.4v-3.5h1.2l0.4,0.4c0.3,0.3,0.4,0.6,0.4,1s-0.2,0.6-0.6,0.6h-0.2v1.6c0,0.3,0.2,0.5,0.6,0.6s1,0.2,1.8,0.2
			s1.4-0.1,1.8-0.2s0.6-0.3,0.6-0.6V66.9l-1.5-0.9v-0.5l1.8-2.3l1.1,0.7c0.3,0.2,0.6,0.3,0.8,0.3h0.4c-0.4,0.8-0.8,1.2-1,1.2
			c-0.3,0-0.5-0.1-0.8-0.3l-0.6-0.4l-0.8,1l1.9,1.2v11.6c0,0.5-0.3,0.9-0.9,1.2c-0.6,0.3-1.5,0.4-2.8,0.4c-1.2,0-2-0.1-2.6-0.4
			C201.7,79.3,201.4,79,201.4,78.4z"/>
		<path d="M217.4,74.1h-0.8c-1.1,0-1.9-0.2-2.5-0.5s-0.8-0.8-0.8-1.5v-5.3l-1.4-0.8v-0.5l1.8-2.3l1.1,0.7c0.3,0.2,0.6,0.3,0.8,0.3
			h0.4c-0.4,0.8-0.8,1.2-1,1.2c-0.3,0-0.5-0.1-0.8-0.3l-0.6-0.4l-0.8,1l1.9,1.2v1.8h4.7v-1.8L218,66v-0.5l1.8-2.3l1.1,0.7
			c0.3,0.2,0.6,0.3,0.8,0.3h0.4c-0.4,0.8-0.8,1.2-1,1.2c-0.3,0-0.5-0.1-0.8-0.3l-0.6-0.4l-0.8,1l1.9,1.2v5.3c0,0.7-0.3,1.1-0.8,1.5
			C219.4,74,218.5,74.1,217.4,74.1z M214.7,69.4v2.7c0,0.4,0.2,0.7,0.5,0.9c0.3,0.2,0.8,0.3,1.5,0.3h0.8c0.7,0,1.1-0.1,1.5-0.3
			c0.3-0.2,0.5-0.5,0.5-0.9v-2.7C219.5,69.4,214.7,69.4,214.7,69.4z"/>
	</g>
	<g>
		<path d="M47.4,65.1v5.3c0.5,0,0.8,0.1,1,0.3c0.2,0.2,0.3,0.5,0.3,0.9c0,0.3-0.1,0.6-0.2,0.9c-0.1,0.3-0.3,0.6-0.6,0.9l-0.6,0.7
			h-1.4V63.2h1l1.1,0.7c0.2,0.2,0.5,0.2,0.8,0.2h0.4c-0.3,0.9-0.6,1.4-0.8,1.4c-0.3,0-0.5-0.1-0.8-0.3L47.4,65.1z M47.4,72.9
			c0.2-0.2,0.3-0.4,0.4-0.7c0.1-0.2,0.1-0.4,0.1-0.6c0-0.1,0-0.2-0.1-0.3c-0.1-0.1-0.2-0.1-0.4-0.1V72.9z"/>
		<path d="M58.1,66.3v-1.2c0-0.4-0.1-0.7-0.4-0.9c-0.3-0.1-0.8-0.2-1.4-0.2h-1.2c-0.6,0-1,0.1-1.3,0.3c-0.3,0.2-0.4,0.5-0.4,0.9v0.6
			c0.4,0,0.7,0.1,0.9,0.2c0.2,0.2,0.3,0.4,0.3,0.7c0,0.4-0.1,0.7-0.3,0.9c-0.2,0.2-0.5,0.3-0.9,0.3c-0.5,0-0.8-0.1-1-0.2
			s-0.3-0.3-0.3-0.6v-2c0-0.7,0.3-1.1,0.8-1.5c0.5-0.3,1.3-0.5,2.3-0.5h1.2c1,0,1.8,0.2,2.3,0.5s0.8,0.8,0.8,1.5v1.2
			c0,0.4-0.1,0.7-0.3,1c-0.2,0.3-0.6,0.5-1,0.8l-4.7,2.5v1.6c0,0.4,0.1,0.7,0.4,0.9c0.3,0.2,0.7,0.3,1.3,0.3h1.2
			c0.6,0,1-0.2,1.3-0.6s0.4-1,0.4-1.7v-0.9l1.4-0.7V71c0,1-0.3,1.8-0.8,2.3s-1.3,0.8-2.3,0.8h-1.2c-1,0-1.8-0.2-2.3-0.5
			s-0.8-0.8-0.8-1.5v-1.8l4.7-2.5c0.5-0.2,0.8-0.5,1-0.8C58,66.9,58.1,66.7,58.1,66.3z M53.4,67.1c0.1,0,0.2,0,0.3-0.1
			s0.1-0.2,0.1-0.3s0-0.1-0.1-0.1c-0.1,0-0.2,0-0.3,0V67.1z"/>
		<path d="M65.5,78.4c0,0.5-0.3,0.9-0.9,1.2C64,79.9,63.1,80,61.8,80c-1.2,0-2.1-0.1-2.6-0.4c-0.6-0.3-0.9-0.7-0.9-1.2v-1.6h-0.2
			c-0.4,0-0.6-0.2-0.6-0.6s0.1-0.7,0.4-1l0.4-0.4h1.2v3.5c0,0.3,0.2,0.5,0.6,0.6s1,0.2,1.8,0.2s1.4-0.1,1.8-0.2s0.6-0.3,0.6-0.6V74
			h-1.2v-0.8h1.2v-6.5L62.8,66v-0.5l3.6-2.3l5.2,1.7v9.3h-1.4v-8.3l-4.3-1.4l-2,1.3l1.7,1.1v6.5c0.3,0,0.6,0,0.7-0.1
			c0.2-0.1,0.2-0.2,0.2-0.3c0.1,0,0.2,0,0.3,0.1s0.1,0.2,0.1,0.3c0,0.3-0.1,0.5-0.3,0.6c-0.2,0.1-0.6,0.2-1,0.2L65.5,78.4L65.5,78.4
			z"/>
		<path d="M86.4,74.1h-0.8c-0.7,0-1.3,0-1.7-0.1c-0.5-0.1-0.8-0.2-1-0.3C82.7,73.9,82.4,74,82,74c-0.4,0.1-1,0.1-1.6,0.1h-0.8
			c-1.1,0-1.9-0.2-2.5-0.5s-0.8-0.8-0.8-1.5v-9h1.4l0.8,0.9c0.3,0.3,0.5,0.6,0.6,0.8c0.1,0.3,0.2,0.5,0.2,0.7c0,0.4-0.1,0.8-0.4,1
			c-0.3,0.2-0.7,0.3-1.2,0.3v5.3c0,0.4,0.2,0.7,0.5,0.9c0.3,0.2,0.8,0.3,1.5,0.3h0.8c0.7,0,1.1-0.1,1.5-0.3c0.3-0.2,0.5-0.5,0.5-0.9
			v-5.3L81,66v-0.5l1.8-2.3l1.1,0.7c0.3,0.2,0.6,0.3,0.8,0.3h0.4c-0.4,0.8-0.8,1.2-1,1.2c-0.3,0-0.5-0.1-0.8-0.3l-0.6-0.4l-0.8,1
			l1.9,1.2v5.3c0,0.4,0.2,0.7,0.5,0.9c0.3,0.2,0.8,0.3,1.5,0.3h0.8c0.7,0,1.1-0.1,1.5-0.3c0.3-0.2,0.5-0.5,0.5-0.9v-5.3L87,66v-0.5
			l1.8-2.3l1.1,0.7c0.3,0.2,0.6,0.3,0.8,0.3h0.4c-0.4,0.8-0.8,1.2-1,1.2c-0.3,0-0.5-0.1-0.8-0.3l-0.6-0.4l-0.8,1l1.9,1.2v5.3
			c0,0.7-0.3,1.1-0.8,1.5C88.4,74,87.5,74.1,86.4,74.1z M77.6,66.1c0.3,0,0.5,0,0.6-0.1s0.2-0.2,0.2-0.4c0-0.1-0.1-0.3-0.2-0.5
			c-0.1-0.2-0.3-0.5-0.6-0.8V66.1z"/>
	</g>
	<g>
		<path d="M337.3,74.1h-0.8c-1.1,0-1.9-0.2-2.5-0.5s-0.8-0.8-0.8-1.5v-6.4l-3-1.4l-1.6,0.7v5.3h0.4c0.5,0,0.8,0.1,1,0.3
			c0.2,0.2,0.3,0.5,0.3,0.9c0,0.3-0.1,0.5-0.2,0.8c-0.1,0.2-0.3,0.5-0.5,0.7l-1.1,1.1h-1.4v-9.3l3.7-1.7l3.7,1.7v7.3
			c0,0.4,0.2,0.7,0.5,0.9c0.3,0.2,0.8,0.3,1.5,0.3h0.8c0.7,0,1.1-0.1,1.5-0.3c0.3-0.2,0.5-0.5,0.5-0.9v-5.3l-1.4-0.8v-0.5l1.8-2.3
			l1.1,0.7c0.3,0.2,0.6,0.3,0.8,0.3h0.4c-0.4,0.8-0.8,1.2-1,1.2c-0.3,0-0.5-0.1-0.8-0.3l-0.6-0.4l-0.8,1l1.9,1.2v5.3
			c0,0.7-0.3,1.1-0.8,1.5C339.3,74,338.4,74.1,337.3,74.1z M328.5,73l0.5-0.5c0.2-0.2,0.3-0.3,0.3-0.5c0.1-0.2,0.1-0.3,0.1-0.5
			c0-0.1,0-0.2-0.1-0.3c-0.1-0.1-0.2-0.1-0.4-0.1h-0.4L328.5,73L328.5,73z"/>
		<path d="M333.2,79c0-0.4,0.2-0.6,0.6-0.6h0.2v-1.6l-0.8-0.4v-0.8l1.1-1.2l0.5,0.4c0.4,0.3,0.7,0.4,0.9,0.4
			c-0.2,0.5-0.3,0.8-0.5,0.8c-0.2,0-0.5-0.1-0.9-0.3L334,76l1.1,0.5v0.6h3.9v-0.4l-0.8-0.4v-0.8l1.1-1.2l0.5,0.4
			c0.4,0.3,0.7,0.4,0.9,0.4c-0.2,0.5-0.3,0.8-0.5,0.8c-0.2,0-0.5-0.1-0.9-0.4l-0.3,0.4l1.1,0.5V77v3h-1.2c-0.5-0.3-0.8-0.6-0.8-1
			s0.2-0.6,0.6-0.6h0.2V78H335v2h-1.2C333.5,79.7,333.2,79.4,333.2,79z"/>
	</g>
	<g>
		<path d="M446.1,74.1h-0.8c-1.1,0-1.9-0.2-2.5-0.5s-0.8-0.8-0.8-1.5v-6.4l-3-1.4l-1.6,0.7v5.3h0.4c0.5,0,0.8,0.1,1,0.3
			c0.2,0.2,0.3,0.5,0.3,0.9c0,0.3-0.1,0.5-0.2,0.8c-0.1,0.2-0.3,0.5-0.5,0.7l-1.1,1.1h-1.4v-9.3l3.7-1.7l3.7,1.7v7.3
			c0,0.4,0.2,0.7,0.5,0.9c0.3,0.2,0.8,0.3,1.5,0.3h0.8c0.7,0,1.1-0.1,1.5-0.3c0.3-0.2,0.5-0.5,0.5-0.9v-5.3l-1.4-0.9v-0.5l1.8-2.3
			l1.1,0.7c0.3,0.2,0.6,0.3,0.8,0.3h0.4c-0.4,0.8-0.8,1.2-1,1.2c-0.3,0-0.5-0.1-0.8-0.3l-0.6-0.4l-0.8,1l1.9,1.2v5.3
			c0,0.7-0.3,1.1-0.8,1.5C448.1,74,447.2,74.1,446.1,74.1z M437.3,73l0.5-0.5c0.2-0.2,0.3-0.3,0.3-0.5c0.1-0.2,0.1-0.3,0.1-0.5
			c0-0.1,0-0.2-0.1-0.3c-0.1-0.1-0.2-0.1-0.4-0.1h-0.4V73z"/>
		<path d="M442,79c0-0.4,0.2-0.6,0.6-0.6h0.2v-1.6l-0.8-0.4v-0.8l1.1-1.2l0.5,0.4c0.4,0.3,0.7,0.4,0.9,0.4c-0.2,0.5-0.3,0.8-0.5,0.8
			s-0.5-0.1-0.9-0.3l-0.3,0.3l1.1,0.5v0.6h3.9v-0.4l-0.8-0.4v-0.8l1.1-1.2l0.5,0.4c0.4,0.3,0.7,0.4,0.9,0.4
			c-0.2,0.5-0.3,0.8-0.5,0.8s-0.5-0.1-0.9-0.4l-0.3,0.4l1.1,0.5V77v3h-1c-0.5-0.3-0.8-0.6-0.8-1s0.2-0.6,0.6-0.6h0.2V78H444v2h-1.2
			C442.3,79.7,442,79.4,442,79z"/>
		<path d="M478.4,74.1v-8.4l-3-1.4l-1.6,0.7v9h-1.4v-8.4l-3-1.4l-1.6,0.7v9h-1.4l-2.3-1.5l-2.3,1.5h-1.4v-8.4l-3-1.4l-1.6,0.7v5.3
			h0.4c0.5,0,0.8,0.1,1,0.3c0.2,0.2,0.3,0.5,0.3,0.9c0,0.3-0.1,0.5-0.2,0.8c-0.1,0.2-0.3,0.5-0.5,0.7l-1.1,1.1h-1.4v-9.3l3.7-1.7
			l3.7,1.7v8.3l2.3-1.5l2.3,1.5v-8.3l3.7-1.7l3,1.4l3-1.4l3.7,1.7v9.3h-1.3V74.1z M455.5,73l0.5-0.5c0.2-0.2,0.3-0.3,0.3-0.5
			c0.1-0.2,0.1-0.3,0.1-0.5c0-0.1,0-0.2-0.1-0.3c-0.1-0.1-0.2-0.1-0.4-0.1h-0.4V73z"/>
		<path d="M485.7,65.2l1.8,1.1l0,0h1.2c1,0,1.8,0.2,2.3,0.5c0.5,0.3,0.8,0.8,0.8,1.5v3.9c0,0.4,0.2,0.7,0.5,0.9
			c0.3,0.2,0.8,0.3,1.5,0.3h0.8c0.7,0,1.1-0.1,1.5-0.3c0.3-0.2,0.5-0.5,0.5-0.9v-5.3l-1.4-0.9v-0.5l1.8-2.3l1.1,0.7
			c0.3,0.2,0.6,0.3,0.8,0.3h0.4c-0.4,0.8-0.8,1.2-1,1.2c-0.3,0-0.5-0.1-0.8-0.3l-0.6-0.4l-0.8,1l1.9,1.2v5.3c0,0.7-0.3,1.1-0.8,1.5
			c-0.6,0.3-1.4,0.5-2.5,0.5h-0.8c-1.1,0-1.9-0.2-2.5-0.5s-0.8-0.8-0.8-1.5v-3.9c0-0.4-0.1-0.7-0.4-0.9c-0.3-0.2-0.7-0.3-1.3-0.3
			h-1.2c-0.6,0-1,0.1-1.3,0.3c-0.3,0.2-0.4,0.5-0.4,0.9v2.1h0.4c0.5,0,0.8,0.1,1,0.3c0.2,0.2,0.3,0.5,0.3,0.9c0,0.3-0.1,0.5-0.2,0.8
			c-0.1,0.2-0.3,0.5-0.5,0.7l-1.1,1.1h-1.4v-5.9c0-0.7,0.3-1.1,0.8-1.5c0.3-0.2,0.6-0.3,1-0.4l-1.4-0.9V65l2-1.8h0.3l1.6,1
			c0.2,0.1,0.5,0.2,0.7,0.2h0.4c-0.3,0.8-0.6,1.2-1,1.2s-0.7-0.1-1.1-0.3l-1.2-0.8L485.7,65.2z M485.8,73l0.5-0.5
			c0.2-0.2,0.3-0.3,0.3-0.5c0.1-0.2,0.1-0.3,0.1-0.5c0-0.1,0-0.2-0.1-0.3c-0.1-0.1-0.2-0.1-0.4-0.1h-0.4V73z"/>
		<path d="M494.6,58.5v2.6l-0.6,0.5l-0.6-0.5v-2.6H494.6z"/>
	</g>
	<path d="M67.9,34.9c0-15,0-15,0-15l-25.2,7.5C67.9,34.9,67.9,34.9,67.9,34.9z"/>
</g>
</svg>
